<svg width="16" height="18" viewBox="0 0 16 18" fill="none" xmlns="http://www.w3.org/2000/svg">
<path fill-rule="evenodd" clip-rule="evenodd" d="M7.65309 6.70578H7.64851C7.08594 6.70578 6.62776 7.16316 6.62507 7.72746V8.09007H8.67544V7.73205C8.67544 7.16613 8.21673 6.70578 7.65309 6.70578ZM9.07901 7.73205V8.16324C9.55548 8.33091 9.90039 8.78154 9.90039 9.31641V10.4744C9.90039 11.1508 9.35208 11.7008 8.67814 11.7008H8.67033H7.76742C7.65603 11.7008 7.56563 11.6101 7.56563 11.4983C7.56563 11.3865 7.65603 11.2958 7.76742 11.2958H8.67033C9.12178 11.2958 9.48875 10.9275 9.48875 10.4744C9.48875 10.4646 9.49129 10.4556 9.4938 10.4467C9.49489 10.4429 9.49595 10.4391 9.49682 10.4353V9.31641C9.49682 8.86335 9.12959 8.49507 8.67814 8.49507H6.62265C6.1712 8.49507 5.80395 8.86335 5.80395 9.31641V10.4353C5.80481 10.4394 5.80592 10.4435 5.80703 10.4475C5.80939 10.4562 5.81176 10.4649 5.81176 10.4744C5.81176 10.9275 6.179 11.2958 6.63045 11.2958C6.74184 11.2958 6.83223 11.3865 6.83223 11.4983C6.83223 11.6101 6.74184 11.7008 6.63045 11.7008L6.62776 11.7005L6.62507 11.7002L6.62386 11.7005L6.62265 11.7008C5.9487 11.7008 5.40039 11.1508 5.40039 10.4744V9.31641C5.40039 8.78154 5.74503 8.33091 6.22151 8.16324V7.73205C6.22501 6.93879 6.86425 6.30078 7.64769 6.30078H7.65388C8.43921 6.30078 9.07901 6.94284 9.07901 7.73205Z" fill="#071529"/>
<path fill-rule="evenodd" clip-rule="evenodd" d="M8.20386 0.09045L14.1821 2.1307C14.8508 2.35929 15.3 2.97488 15.3 3.66426V9.64098C15.3 11.4527 14.6267 13.2067 13.4051 14.5756C12.8457 15.2029 12.128 15.742 11.211 16.2244L7.97967 17.9208C7.87878 17.973 7.76763 18 7.65558 18C7.54443 18 7.43328 17.973 7.3323 17.9208L4.09451 16.2234C3.17577 15.7402 2.45707 15.2011 1.8986 14.5765C0.675162 13.2058 0 11.4509 0 9.63738C0 9.27198 0.305631 8.97507 0.681651 8.97507C1.05766 8.97507 1.36329 9.27198 1.36329 9.63738C1.36329 11.1332 1.91898 12.5786 2.92757 13.7089C3.37675 14.212 3.9704 14.653 4.74188 15.058L7.65558 16.5852L10.5628 15.0589C11.3323 14.6548 11.9261 14.2138 12.3762 13.7089C13.3829 12.5795 13.9377 11.1359 13.9377 9.64098V3.66426C13.9377 3.53646 13.8542 3.42306 13.7311 3.38077L7.75278 1.34051C7.68708 1.31801 7.61391 1.31801 7.54722 1.34051L1.56982 3.38077C1.44664 3.42306 1.36329 3.53646 1.36329 3.66426V5.37422C1.36329 5.74051 1.05766 6.0375 0.681651 6.0375C0.305631 6.0375 0 5.74051 0 5.37422V3.66426C0 2.97488 0.450108 2.35929 1.11879 2.1307L7.09614 0.09045C7.45362 -0.03015 7.84728 -0.03015 8.20386 0.09045Z" fill="#071529"/>
</svg>
