<svg width="17" height="18" viewBox="0 0 17 18" fill="none" xmlns="http://www.w3.org/2000/svg">
<path fill-rule="evenodd" clip-rule="evenodd" d="M4.74324 0H11.8192C14.7662 0 16.5312 1.75629 16.5392 4.68874V13.3113C16.5392 16.2437 14.7822 18 11.8272 18H9.20765C8.87171 17.9631 8.61739 17.6807 8.61739 17.3443C8.61739 17.008 8.87171 16.7256 9.20765 16.6887H11.8192C14.0713 16.6887 15.2054 15.5524 15.2054 13.3113V4.68874C15.2054 2.44769 14.0713 1.31125 11.8192 1.31125H4.74324C2.49107 1.31125 1.34901 2.44769 1.34901 4.68874V13.3113C1.34901 15.5524 2.49107 16.6887 4.74324 16.6887C5.07918 16.7256 5.33346 17.008 5.33346 17.3443C5.33346 17.6807 5.07918 17.9631 4.74324 18C1.79625 18 0.03125 16.2437 0.03125 13.3113V4.68874C0.03125 1.74834 1.79625 0 4.74324 0ZM4.97484 5.84901H7.49054C7.82648 5.81215 8.08079 5.52969 8.08079 5.19338C8.08079 4.85707 7.82648 4.57461 7.49054 4.53775H4.97484C4.6389 4.57461 4.38462 4.85707 4.38462 5.19338C4.38462 5.52969 4.6389 5.81215 4.97484 5.84901ZM11.5797 9.65565H4.97484H4.96686C4.63092 9.61875 4.37663 9.33633 4.37663 9C4.37663 8.66367 4.63092 8.38125 4.96686 8.34435H11.5797C11.8323 8.31663 12.0787 8.43516 12.2138 8.64954C12.3489 8.86383 12.3489 9.13617 12.2138 9.35046C12.0787 9.56484 11.8323 9.68337 11.5797 9.65565ZM11.5797 13.4623H4.97484H4.96686C4.60518 13.4623 4.31197 13.1705 4.31197 12.8106C4.31197 12.4507 4.60518 12.1589 4.96686 12.1589H11.5797C11.9413 12.1589 12.2345 12.4507 12.2345 12.8106C12.2345 13.1705 11.9413 13.4623 11.5797 13.4623Z" fill="#071529"/>
</svg>
