<svg width="18" height="18" viewBox="0 0 18 18" fill="none" xmlns="http://www.w3.org/2000/svg">
<g clip-path="url(#clip0_2_497)">
<path d="M15.8321 13.1818C16.6043 11.9238 17.012 10.4762 17.01 9.00013L17.01 8.99999L17.01 8.99985C17.012 7.52379 16.6043 6.07613 15.8321 4.81814L15.8277 4.81128C15.1113 3.64369 14.1075 2.67931 12.9122 2.0103C11.7168 1.34129 10.3699 0.989996 9.00002 0.98999C7.63018 0.989985 6.28323 1.34127 5.08787 2.01027C3.8925 2.67927 2.88867 3.64364 2.1723 4.81122L2.16785 4.81818C1.3976 6.07703 0.989996 7.52416 0.98999 8.99996C0.989985 10.4758 1.39758 11.9229 2.16781 13.1818L2.17234 13.1888C2.88872 14.3564 3.89255 15.3207 5.0879 15.9897C6.28326 16.6587 7.6302 17.01 9.00002 17.01C10.3698 17.01 11.7168 16.6587 12.9121 15.9897C14.1075 15.3207 15.1113 14.3563 15.8277 13.1887L15.8321 13.1818ZM10.0239 15.6372C9.87121 15.7844 9.69553 15.9058 9.50376 15.9964C9.34635 16.0712 9.17426 16.11 8.99998 16.11C8.82571 16.11 8.65362 16.0712 8.49621 15.9964C8.13126 15.81 7.81886 15.5351 7.58756 15.1968C7.11517 14.5142 6.7651 13.7546 6.55298 12.952C7.36783 12.9019 8.1835 12.8764 8.99999 12.8754C9.81614 12.8754 10.6319 12.901 11.4471 12.9521C11.3297 13.3647 11.1831 13.7685 11.0083 14.1603C10.7781 14.7113 10.4439 15.2127 10.0239 15.6372V15.6372ZM1.90565 9.44999H5.13647C5.15751 10.3515 5.25522 11.2496 5.42856 12.1345C4.54538 12.2123 3.66446 12.319 2.78579 12.4548C2.27126 11.5317 1.97049 10.5048 1.90565 9.44999ZM2.78579 5.54521C3.66411 5.68132 4.54534 5.78808 5.42949 5.8655C5.25581 6.75039 5.15787 7.64847 5.13676 8.54999H1.90565C1.97048 7.49515 2.27125 6.46832 2.78578 5.54521H2.78579ZM7.97612 2.36279C8.12875 2.21551 8.30443 2.09417 8.49621 2.00358C8.65362 1.92878 8.82571 1.88998 8.99998 1.88998C9.17426 1.88998 9.34635 1.92878 9.50376 2.00358C9.86871 2.18999 10.1811 2.46491 10.4124 2.80319C10.8848 3.4858 11.2349 4.24535 11.447 5.04791C10.6321 5.09805 9.81647 5.1236 8.99999 5.12454C8.18384 5.12453 7.36812 5.09898 6.55284 5.0479C6.67025 4.63526 6.8169 4.23151 6.99169 3.83971C7.22184 3.2887 7.55608 2.78723 7.97612 2.36279ZM16.0943 8.54999H12.8635C12.8425 7.64847 12.7448 6.75038 12.5714 5.86543C13.4546 5.78771 14.3355 5.68097 15.2142 5.54521C15.7287 6.46832 16.0295 7.49515 16.0943 8.54999ZM6.33375 12.0646C6.15774 11.2035 6.05834 10.3286 6.0367 9.44999H11.9634C11.9419 10.3286 11.8427 11.2035 11.6669 12.0646C10.7789 12.0063 9.88992 11.9766 8.99999 11.9754C8.1107 11.9754 7.22196 12.0051 6.33375 12.0646ZM11.6662 5.93539C11.8422 6.79645 11.9416 7.6714 11.9633 8.54999H6.0366C6.05804 7.6714 6.15727 6.79643 6.33311 5.93535C7.22109 5.99361 8.11005 6.02334 8.99999 6.02453C9.88928 6.02453 10.778 5.99482 11.6662 5.9354V5.93539ZM12.8632 9.44999H16.0943C16.0295 10.5048 15.7287 11.5317 15.2142 12.4548C14.3359 12.3186 13.4546 12.2119 12.5705 12.1345C12.7442 11.2496 12.8421 10.3515 12.8632 9.44999ZM14.6746 4.71685C13.9066 4.82765 13.1364 4.91537 12.3638 4.98001C12.225 4.46306 12.0459 3.95777 11.8283 3.46876C11.6295 3.01876 11.3795 2.59322 11.0831 2.20061C12.5155 2.63991 13.7725 3.52057 14.6746 4.71685ZM3.97244 3.97244C4.79412 3.14997 5.80501 2.54162 6.9165 2.20072C6.89963 2.22256 6.88229 2.24343 6.86567 2.26572C6.29436 3.08814 5.87823 4.00807 5.63777 4.98015C4.86519 4.91471 4.09441 4.82695 3.32541 4.71685C3.52374 4.45415 3.73993 4.20543 3.97244 3.97244ZM3.32541 13.2831C4.09334 13.1723 4.86358 13.0846 5.63612 13.02C5.77497 13.5369 5.95404 14.0422 6.1717 14.5312C6.37043 14.9812 6.62048 15.4068 6.91687 15.7994C5.48446 15.3601 4.22747 14.4794 3.32541 13.2831V13.2831ZM14.0275 14.0275C13.2059 14.85 12.195 15.4583 11.0835 15.7992C11.1003 15.7774 11.1177 15.7565 11.1343 15.7342C11.7056 14.9118 12.1218 13.9919 12.3622 13.0198C13.1348 13.0853 13.9056 13.173 14.6746 13.2831C14.4762 13.5458 14.26 13.7945 14.0275 14.0275V14.0275Z" fill="#071529"/>
</g>
<defs>
<clipPath id="clip0_2_497">
<rect width="18" height="18" fill="white"/>
</clipPath>
</defs>
</svg>
