<svg width="17" height="18" viewBox="0 0 17 18" fill="none" xmlns="http://www.w3.org/2000/svg">
<path d="M5.834 3.75065C5.83418 4.45214 5.58153 5.13019 5.12237 5.66052C4.6632 6.19086 4.02829 6.53794 3.334 6.63815V11.6673C3.334 12.3304 3.59739 12.9662 4.06623 13.4351C4.53507 13.9039 5.17095 14.1673 5.834 14.1673H8.07566L7.26733 13.359C7.20592 13.3018 7.15667 13.2328 7.12251 13.1561C7.08835 13.0794 7.06998 12.9967 7.0685 12.9128C7.06702 12.8288 7.08246 12.7455 7.11389 12.6677C7.14533 12.5898 7.19212 12.5191 7.25146 12.4598C7.31081 12.4004 7.38151 12.3537 7.45933 12.3222C7.53716 12.2908 7.62051 12.2753 7.70443 12.2768C7.78835 12.2783 7.87111 12.2967 7.94778 12.3308C8.02444 12.365 8.09344 12.4142 8.15066 12.4757L10.0257 14.3507C10.1427 14.4678 10.2084 14.6267 10.2084 14.7923C10.2084 14.9579 10.1427 15.1168 10.0257 15.234L8.15066 17.109C8.09344 17.1704 8.02444 17.2196 7.94778 17.2538C7.87111 17.288 7.78835 17.3063 7.70443 17.3078C7.62051 17.3093 7.53716 17.2939 7.45933 17.2624C7.38151 17.231 7.31081 17.1842 7.25146 17.1248C7.19212 17.0655 7.14533 16.9948 7.11389 16.917C7.08246 16.8392 7.06702 16.7558 7.0685 16.6719C7.06998 16.588 7.08835 16.5052 7.12251 16.4285C7.15667 16.3519 7.20592 16.2829 7.26733 16.2257L8.07566 15.4173H5.834C4.83943 15.4173 3.88561 15.0222 3.18235 14.319C2.47908 13.6157 2.084 12.6619 2.084 11.6673V6.54648C1.41427 6.34463 0.839325 5.90894 0.463866 5.31877C0.0884069 4.7286 -0.0625866 4.0232 0.0383844 3.33104C0.139355 2.63888 0.485574 2.00602 1.01399 1.5477C1.5424 1.08938 2.21785 0.836099 2.91733 0.833984C3.69088 0.833984 4.43274 1.14128 4.97972 1.68826C5.5267 2.23524 5.834 2.9771 5.834 3.75065ZM4.584 3.75065C4.584 3.30862 4.4084 2.8847 4.09584 2.57214C3.78328 2.25958 3.35936 2.08398 2.91733 2.08398C2.4753 2.08398 2.05138 2.25958 1.73882 2.57214C1.42626 2.8847 1.25066 3.30862 1.25066 3.75065C1.25066 4.19268 1.42626 4.6166 1.73882 4.92916C2.05138 5.24172 2.4753 5.41732 2.91733 5.41732C3.35936 5.41732 3.78328 5.24172 4.09584 4.92916C4.4084 4.6166 4.584 4.19268 4.584 3.75065ZM16.6673 14.584C16.6672 15.143 16.5064 15.6902 16.2041 16.1605C15.9018 16.6307 15.4707 17.0042 14.9621 17.2364C14.4536 17.4686 13.8891 17.5498 13.3357 17.4702C12.7824 17.3907 12.2635 17.1538 11.841 16.7878C11.4184 16.4218 11.11 15.942 10.9523 15.4056C10.7947 14.8693 10.7945 14.2989 10.9519 13.7625C11.1092 13.226 11.4173 12.7461 11.8397 12.3798C12.262 12.0135 12.7807 11.7763 13.334 11.6965V6.66732C13.334 6.00428 13.0706 5.36839 12.6018 4.89955C12.1329 4.43071 11.497 4.16732 10.834 4.16732H9.21733L10.0257 4.97565C10.1361 5.09413 10.1962 5.25084 10.1933 5.41275C10.1905 5.57467 10.1249 5.72916 10.0103 5.84367C9.89584 5.95818 9.74135 6.02377 9.57943 6.02663C9.41751 6.02949 9.26081 5.96938 9.14233 5.85898L7.26733 3.98398C7.15029 3.8668 7.08455 3.70794 7.08455 3.54232C7.08455 3.37669 7.15029 3.21784 7.26733 3.10065L9.14233 1.22565C9.19955 1.16425 9.26855 1.11499 9.34521 1.08083C9.42188 1.04667 9.50464 1.02831 9.58856 1.02682C9.67248 1.02534 9.75584 1.04078 9.83366 1.07222C9.91148 1.10365 9.98218 1.15044 10.0415 1.20979C10.1009 1.26913 10.1477 1.33983 10.1791 1.41765C10.2105 1.49548 10.226 1.57883 10.2245 1.66275C10.223 1.74667 10.2046 1.82943 10.1705 1.9061C10.1363 1.98277 10.0871 2.05177 10.0257 2.10898L9.21733 2.91732H10.834C11.8286 2.91732 12.7824 3.31241 13.4856 4.01567C14.1889 4.71893 14.584 5.67276 14.584 6.66732V11.7882C15.789 12.1465 16.6673 13.2632 16.6673 14.584ZM15.4173 14.584C15.4173 14.142 15.2417 13.718 14.9292 13.4055C14.6166 13.0929 14.1927 12.9173 13.7507 12.9173C13.3086 12.9173 12.8847 13.0929 12.5722 13.4055C12.2596 13.718 12.084 14.142 12.084 14.584C12.084 15.026 12.2596 15.4499 12.5722 15.7625C12.8847 16.0751 13.3086 16.2507 13.7507 16.2507C14.1927 16.2507 14.6166 16.0751 14.9292 15.7625C15.2417 15.4499 15.4173 15.026 15.4173 14.584Z" fill="#071529"/>
</svg>
