<svg width="17" height="14" viewBox="0 0 17 14" fill="none" xmlns="http://www.w3.org/2000/svg">
<path d="M10.6667 3.83333L11.6667 4.83333L6 10.5L5 9.5L10.6667 3.83333ZM1.66667 0.5H15C15.925 0.5 16.6667 1.24167 16.6667 2.16667V5.5C16.2246 5.5 15.8007 5.67559 15.4882 5.98816C15.1756 6.30072 15 6.72464 15 7.16667C15 7.60869 15.1756 8.03262 15.4882 8.34518C15.8007 8.65774 16.2246 8.83333 16.6667 8.83333V12.1667C16.6667 13.0917 15.925 13.8333 15 13.8333H1.66667C1.22464 13.8333 0.800716 13.6577 0.488155 13.3452C0.175595 13.0326 0 12.6087 0 12.1667V8.83333C0.925 8.83333 1.66667 8.09167 1.66667 7.16667C1.66667 6.72464 1.49107 6.30072 1.17851 5.98816C0.865951 5.67559 0.442027 5.5 0 5.5V2.16667C0 1.72464 0.175595 1.30072 0.488155 0.988155C0.800716 0.675595 1.22464 0.5 1.66667 0.5ZM1.66667 2.16667V4.28333C2.17307 4.57533 2.59363 4.99555 2.88605 5.50171C3.17846 6.00787 3.33241 6.58211 3.33241 7.16667C3.33241 7.75122 3.17846 8.32547 2.88605 8.83162C2.59363 9.33778 2.17307 9.758 1.66667 10.05V12.1667H15V10.05C14.4936 9.758 14.073 9.33778 13.7806 8.83162C13.4882 8.32547 13.3343 7.75122 13.3343 7.16667C13.3343 6.58211 13.4882 6.00787 13.7806 5.50171C14.073 4.99555 14.4936 4.57533 15 4.28333V2.16667H1.66667ZM6.25 3.83333C6.94167 3.83333 7.5 4.39167 7.5 5.08333C7.5 5.775 6.94167 6.33333 6.25 6.33333C5.55833 6.33333 5 5.775 5 5.08333C5 4.39167 5.55833 3.83333 6.25 3.83333ZM10.4167 8C11.1083 8 11.6667 8.55833 11.6667 9.25C11.6667 9.94167 11.1083 10.5 10.4167 10.5C9.725 10.5 9.16667 9.94167 9.16667 9.25C9.16667 8.55833 9.725 8 10.4167 8Z" fill="#071529"/>
</svg>
