<svg width="18" height="12" viewBox="0 0 18 12" fill="none" xmlns="http://www.w3.org/2000/svg">
<path d="M1.84719 0.542969C1.68153 0.542887 1.51749 0.575454 1.36443 0.638808C1.21137 0.702163 1.0723 0.795063 0.955166 0.912197C0.838032 1.02933 0.745132 1.1684 0.681777 1.32146C0.618423 1.47452 0.585856 1.63857 0.585938 1.80422V10.5317C0.585938 11.2286 1.15031 11.793 1.84719 11.793H16.1997C16.3653 11.7931 16.5294 11.7605 16.6824 11.6971C16.8355 11.6338 16.9746 11.5409 17.0917 11.4237C17.2088 11.3066 17.3017 11.1675 17.3651 11.0145C17.4285 10.8614 17.461 10.6974 17.4609 10.5317V1.80422C17.461 1.63857 17.4285 1.47452 17.3651 1.32146C17.3017 1.1684 17.2088 1.02933 17.0917 0.912197C16.9746 0.795063 16.8355 0.702163 16.6824 0.638808C16.5294 0.575454 16.3653 0.542887 16.1997 0.542969H1.84719ZM1.83594 1.79297H16.2109V10.543H1.83594V1.79297ZM3.08594 3.04297V4.29297H9.33594V3.04297H3.08594ZM3.08594 5.54297V6.79297H4.33594V5.54297H3.08594ZM5.58594 5.54297V6.79297H6.83594V5.54297H5.58594ZM8.08594 5.54297V6.79297H9.33594V5.54297H8.08594ZM3.08594 8.04297V9.29297H9.33594V8.04297H3.08594ZM10.5859 8.04297V9.29297H14.9609V8.04297H10.5859Z" fill="#071529"/>
</svg>
