<svg width="17" height="18" viewBox="0 0 17 18" fill="none" xmlns="http://www.w3.org/2000/svg">
<path d="M3.33594 14.168H13.3359M8.33594 4.16797V10.8346M8.33594 10.8346L11.2526 7.91797M8.33594 10.8346L5.41927 7.91797" stroke="#071529" stroke-width="1.5" stroke-linecap="round" stroke-linejoin="round"/>
<path d="M0.835938 16.168V2.16797C0.835937 2.03536 0.888616 1.90818 0.982384 1.81442C1.07615 1.72065 1.20333 1.66797 1.33594 1.66797H15.3359C15.4685 1.66797 15.5957 1.72065 15.6895 1.81442C15.7833 1.90818 15.8359 2.03536 15.8359 2.16797V16.168C15.8359 16.3006 15.7833 16.4278 15.6895 16.5215C15.5957 16.6153 15.4685 16.668 15.3359 16.668H1.33594C1.20333 16.668 1.07615 16.6153 0.982384 16.5215C0.888616 16.4278 0.835938 16.3006 0.835938 16.168V16.168Z" stroke="#071529" stroke-width="1.5"/>
</svg>
