<svg width="19" height="12" viewBox="0 0 19 12" fill="none" xmlns="http://www.w3.org/2000/svg">
<path d="M17.4609 0.699219H1.21094C0.920857 0.699219 0.642657 0.814453 0.437539 1.01957C0.232422 1.22469 0.117188 1.50289 0.117188 1.79297V10.543C0.117188 10.833 0.232422 11.1112 0.437539 11.3164C0.642657 11.5215 0.920857 11.6367 1.21094 11.6367H17.4609C17.751 11.6367 18.0292 11.5215 18.2343 11.3164C18.4395 11.1112 18.5547 10.833 18.5547 10.543V1.79297C18.5547 1.50289 18.4395 1.22469 18.2343 1.01957C18.0292 0.814453 17.751 0.699219 17.4609 0.699219ZM5.76562 10.6992L1.05469 6.58203V5.75391L5.76562 1.63672H12.9062L17.6172 5.75391V6.58203L12.9062 10.6992H5.76562ZM17.6172 1.79297V4.51172L14.3359 1.63672H17.4609C17.5024 1.63672 17.5421 1.65318 17.5714 1.68248C17.6007 1.71179 17.6172 1.75153 17.6172 1.79297ZM1.21094 1.63672H4.33594L1.05469 4.51172V1.79297C1.05469 1.75153 1.07115 1.71179 1.10045 1.68248C1.12975 1.65318 1.1695 1.63672 1.21094 1.63672ZM1.05469 10.543V7.82422L4.33594 10.6992H1.21094C1.1695 10.6992 1.12975 10.6828 1.10045 10.6535C1.07115 10.6242 1.05469 10.5844 1.05469 10.543ZM17.4609 10.6992H14.3359L17.6172 7.82422V10.543C17.6172 10.5844 17.6007 10.6242 17.5714 10.6535C17.5421 10.6828 17.5024 10.6992 17.4609 10.6992ZM9.33594 3.19922C8.74877 3.19922 8.1748 3.37333 7.68659 3.69954C7.19838 4.02575 6.81787 4.48941 6.59317 5.03188C6.36847 5.57435 6.30968 6.17126 6.42423 6.74714C6.53878 7.32302 6.82153 7.852 7.23671 8.26719C7.6519 8.68238 8.18088 8.96513 8.75676 9.07967C9.33264 9.19422 9.92956 9.13543 10.472 8.91074C11.0145 8.68604 11.4782 8.30553 11.8044 7.81732C12.1306 7.32911 12.3047 6.75513 12.3047 6.16797C12.3047 5.38061 11.9919 4.62549 11.4352 4.06875C10.8784 3.512 10.1233 3.19922 9.33594 3.19922ZM9.33594 8.19922C8.93419 8.19922 8.54147 8.08009 8.20744 7.85689C7.8734 7.63369 7.61305 7.31646 7.45931 6.94529C7.30557 6.57413 7.26534 6.16572 7.34372 5.77169C7.42209 5.37767 7.61555 5.01573 7.89963 4.73166C8.1837 4.44758 8.54564 4.25412 8.93966 4.17575C9.33368 4.09737 9.7421 4.1376 10.1133 4.29134C10.4844 4.44508 10.8017 4.70543 11.0249 5.03947C11.2481 5.3735 11.3672 5.76623 11.3672 6.16797C11.3651 6.70606 11.1505 7.22152 10.77 7.60201C10.3895 7.98249 9.87403 8.19716 9.33594 8.19922Z" fill="#071529"/>
</svg>
