<svg width="21" height="18" viewBox="0 0 21 18" fill="none" xmlns="http://www.w3.org/2000/svg">
<path d="M1 3.83464V15.8346C1 16.1883 1.14048 16.5274 1.39052 16.7774C1.64057 17.0275 1.97971 17.168 2.33333 17.168H18.3333C18.687 17.168 19.0261 17.0275 19.2761 16.7774C19.5262 16.5274 19.6667 16.1883 19.6667 15.8346V5.16797C19.6667 4.81435 19.5262 4.47521 19.2761 4.22516C19.0261 3.97511 18.687 3.83464 18.3333 3.83464H4.33333M1 3.83464V2.5013C1 2.14768 1.14048 1.80854 1.39052 1.55849C1.64057 1.30844 1.97971 1.16797 2.33333 1.16797H13C13.3536 1.16797 13.6928 1.30844 13.9428 1.55849C14.1929 1.80854 14.3333 2.14768 14.3333 2.5013V3.83464H4.33333M1 3.83464H4.33333M12.3333 11.8346H16.3333" stroke="#071529"/>
</svg>
