<svg width="15" height="17" viewBox="0 0 15 17" fill="none" xmlns="http://www.w3.org/2000/svg">
<path d="M14.0312 3.34767L10.9062 0.222666C10.7872 0.10659 10.6272 0.0420414 10.4609 0.0429788H4.21094C3.87942 0.0429788 3.56147 0.174675 3.32705 0.409095C3.09263 0.643516 2.96094 0.961458 2.96094 1.29298V2.54298H1.71094C1.37942 2.54298 1.06147 2.67467 0.827054 2.9091C0.592634 3.14352 0.460938 3.46146 0.460938 3.79298V15.043C0.460938 15.3745 0.592634 15.6924 0.827054 15.9269C1.06147 16.1613 1.37942 16.293 1.71094 16.293H10.4609C10.7925 16.293 11.1104 16.1613 11.3448 15.9269C11.5792 15.6924 11.7109 15.3745 11.7109 15.043V13.793H12.9609C13.2925 13.793 13.6104 13.6613 13.8448 13.4269C14.0792 13.1924 14.2109 12.8745 14.2109 12.543V3.79298C14.2119 3.6267 14.1473 3.46673 14.0312 3.34767ZM10.4609 15.043H1.71094V3.79298H7.70312L10.4609 6.55079V15.043ZM12.9609 12.543H11.7109V6.29298C11.7119 6.1267 11.6473 5.96673 11.5312 5.84767L8.40625 2.72267C8.28719 2.60659 8.12722 2.54204 7.96094 2.54298H4.21094V1.29298H10.2031L12.9609 4.05079V12.543ZM8.58594 10.043C8.58594 10.2087 8.52009 10.3677 8.40288 10.4849C8.28567 10.6021 8.1267 10.668 7.96094 10.668H4.21094C4.04518 10.668 3.88621 10.6021 3.769 10.4849C3.65179 10.3677 3.58594 10.2087 3.58594 10.043C3.58594 9.87722 3.65179 9.71825 3.769 9.60104C3.88621 9.48383 4.04518 9.41798 4.21094 9.41798H7.96094C8.1267 9.41798 8.28567 9.48383 8.40288 9.60104C8.52009 9.71825 8.58594 9.87722 8.58594 10.043ZM8.58594 12.543C8.58594 12.7087 8.52009 12.8677 8.40288 12.9849C8.28567 13.1021 8.1267 13.168 7.96094 13.168H4.21094C4.04518 13.168 3.88621 13.1021 3.769 12.9849C3.65179 12.8677 3.58594 12.7087 3.58594 12.543C3.58594 12.3772 3.65179 12.2182 3.769 12.101C3.88621 11.9838 4.04518 11.918 4.21094 11.918H7.96094C8.1267 11.918 8.28567 11.9838 8.40288 12.101C8.52009 12.2182 8.58594 12.3772 8.58594 12.543Z" fill="#071529"/>
</svg>
