<svg width="36" height="26" viewBox="0 0 36 26" fill="none" xmlns="http://www.w3.org/2000/svg">
<path d="M21.2727 14.625C19.9091 14.625 18.75 14.151 17.7955 13.2031C16.8409 12.2552 16.3636 11.1042 16.3636 9.75C16.3636 8.39583 16.8409 7.24479 17.7955 6.29688C18.75 5.34896 19.9091 4.875 21.2727 4.875C22.6364 4.875 23.7955 5.34896 24.75 6.29688C25.7045 7.24479 26.1818 8.39583 26.1818 9.75C26.1818 11.1042 25.7045 12.2552 24.75 13.2031C23.7955 14.151 22.6364 14.625 21.2727 14.625ZM6.54545 19.5V0H36V19.5H6.54545ZM13.0909 16.25H29.4545C29.4545 15.3562 29.7747 14.5909 30.4151 13.9539C31.0565 13.318 31.8273 13 32.7273 13V6.5C31.8273 6.5 31.0565 6.1815 30.4151 5.5445C29.7747 4.90858 29.4545 4.14375 29.4545 3.25H13.0909C13.0909 4.14375 12.7702 4.90858 12.1287 5.5445C11.4884 6.1815 10.7182 6.5 9.81818 6.5V13C10.7182 13 11.4884 13.318 12.1287 13.9539C12.7702 14.5909 13.0909 15.3562 13.0909 16.25ZM0 26V4.875H3.27273V22.75H31.0909V26H0ZM9.81818 16.25V3.25V16.25Z" fill="#FFC800"/>
</svg>
