<svg width="18" height="18" viewBox="0 0 18 18" fill="none" xmlns="http://www.w3.org/2000/svg">
<path d="M10.1719 1.66797C8.18275 1.66797 6.2751 2.45814 4.86857 3.86467C3.46205 5.27119 2.67188 7.17885 2.67188 9.16797H0.171875L3.41354 12.4096L3.47187 12.5263L6.83854 9.16797H4.33854C4.33854 5.94297 6.94688 3.33464 10.1719 3.33464C13.3969 3.33464 16.0052 5.94297 16.0052 9.16797C16.0052 12.393 13.3969 15.0013 10.1719 15.0013C8.56354 15.0013 7.10521 14.343 6.05521 13.2846L4.87187 14.468C5.56639 15.1663 6.39228 15.7203 7.30193 16.0978C8.21157 16.4754 9.18697 16.6692 10.1719 16.668C12.161 16.668 14.0687 15.8778 15.4752 14.4713C16.8817 13.0647 17.6719 11.1571 17.6719 9.16797C17.6719 7.17885 16.8817 5.27119 15.4752 3.86467C14.0687 2.45814 12.161 1.66797 10.1719 1.66797ZM9.33854 5.83464V10.0013L12.8802 12.1013L13.5219 11.0346L10.5885 9.29297V5.83464H9.33854Z" fill="#071529"/>
</svg>
