<svg width="19" height="17" viewBox="0 0 19 17" fill="none" xmlns="http://www.w3.org/2000/svg">
<path d="M9.33594 3.16797L10.5309 5.48234L13.0859 5.85359L11.2109 7.54297L11.8359 10.043L9.33594 8.63672L6.83594 10.043L7.46094 7.54297L5.58594 5.85359L8.21094 5.48234L9.33594 3.16797Z" fill="#071529"/>
<path d="M10.4209 16.918L9.33594 16.293L11.8359 11.918H15.5859C15.7502 11.9182 15.9128 11.8861 16.0646 11.8233C16.2164 11.7606 16.3542 11.6685 16.4704 11.5524C16.5865 11.4363 16.6786 11.2984 16.7413 11.1466C16.804 10.9948 16.8362 10.8322 16.8359 10.668V3.16797C16.8362 3.00375 16.804 2.84109 16.7413 2.68932C16.6786 2.53755 16.5865 2.39966 16.4704 2.28353C16.3542 2.16741 16.2164 2.07535 16.0646 2.01262C15.9128 1.94989 15.7502 1.91772 15.5859 1.91797H3.08594C2.92172 1.91772 2.75906 1.94989 2.60729 2.01262C2.45552 2.07535 2.31763 2.16741 2.2015 2.28353C2.08538 2.39966 1.99332 2.53755 1.93059 2.68932C1.86785 2.84109 1.83569 3.00375 1.83594 3.16797V10.668C1.83569 10.8322 1.86785 10.9948 1.93059 11.1466C1.99332 11.2984 2.08538 11.4363 2.2015 11.5524C2.31763 11.6685 2.45552 11.7606 2.60729 11.8233C2.75906 11.8861 2.92172 11.9182 3.08594 11.918H8.71094V13.168H3.08594C2.4229 13.168 1.78701 12.9046 1.31817 12.4357C0.84933 11.9669 0.585938 11.331 0.585938 10.668V3.16797C0.585855 2.83964 0.650464 2.51451 0.776071 2.21116C0.901679 1.90781 1.08582 1.63218 1.31799 1.40002C1.55015 1.16786 1.82578 0.983711 2.12913 0.858103C2.43248 0.732495 2.75761 0.667887 3.08594 0.667969H15.5859C15.9143 0.667887 16.2394 0.732495 16.5427 0.858103C16.8461 0.983711 17.1217 1.16786 17.3539 1.40002C17.5861 1.63218 17.7702 1.90781 17.8958 2.21116C18.0214 2.51451 18.086 2.83964 18.0859 3.16797V10.668C18.0859 11.331 17.8225 11.9669 17.3537 12.4357C16.8849 12.9046 16.249 13.168 15.5859 13.168H12.5641L10.4209 16.918Z" fill="#071529"/>
</svg>
