<svg width="33" height="36" viewBox="0 0 33 36" fill="none" xmlns="http://www.w3.org/2000/svg">
<path d="M18.9367 21.8571C18.9367 21.5161 19.0697 21.1891 19.3064 20.948C19.5432 20.7069 19.8643 20.5714 20.1991 20.5714H25.2489C25.5837 20.5714 25.9048 20.7069 26.1416 20.948C26.3783 21.1891 26.5113 21.5161 26.5113 21.8571V27C26.5113 27.341 26.3783 27.668 26.1416 27.9091C25.9048 28.1503 25.5837 28.2857 25.2489 28.2857H20.1991C19.8643 28.2857 19.5432 28.1503 19.3064 27.9091C19.0697 27.668 18.9367 27.341 18.9367 27V21.8571ZM21.4615 25.7143H23.9864V23.1429H21.4615V25.7143ZM6.7869 0.282857L0.474679 5.42571C0.0555474 5.76514 0 6.35143 0 6.86571V11.5714C0 13.0191 0.469629 14.3537 1.26244 15.4286V34.7143C1.26244 35.0553 1.39545 35.3823 1.6322 35.6234C1.86896 35.8645 2.19007 36 2.52489 36H30.2986C30.6335 36 30.9546 35.8645 31.1913 35.6234C31.4281 35.3823 31.5611 35.0553 31.5611 34.7143V15.4286C32.3539 14.3537 32.8235 13.0191 32.8235 11.5714V6.85543C32.8235 6.34114 32.768 5.76514 32.3489 5.42571L26.0366 0.282857C25.8132 0.100268 25.5354 0.000519799 25.2489 0H7.57466C7.28816 0.000519799 7.01036 0.100268 6.7869 0.282857ZM10.0995 7.71429V11.5714C10.0995 12.5944 9.70053 13.5755 8.99026 14.2988C8.28 15.0222 7.31668 15.4286 6.31222 15.4286C5.30775 15.4286 4.34443 15.0222 3.63417 14.2988C2.92391 13.5755 2.52489 12.5944 2.52489 11.5714V7.71429H10.0995ZM20.1991 7.71429V11.5714C20.1991 12.5944 19.8001 13.5755 19.0898 14.2988C18.3795 15.0222 17.4162 15.4286 16.4118 15.4286C15.4073 15.4286 14.444 15.0222 13.7337 14.2988C13.0235 13.5755 12.6244 12.5944 12.6244 11.5714V7.71429H20.1991ZM30.2986 7.71429V11.5714C30.2986 12.5944 29.8996 13.5755 29.1894 14.2988C28.4791 15.0222 27.5158 15.4286 26.5113 15.4286C25.5068 15.4286 24.5435 15.0222 23.8333 14.2988C23.123 13.5755 22.724 12.5944 22.724 11.5714V7.71429H30.2986ZM11.4352 2.57143L10.4884 5.14286H4.86041L8.01652 2.57143H11.4377H11.4352ZM13.185 5.14286L14.1318 2.57143H18.6589L19.4997 5.14286H13.185ZM21.3201 2.57143H24.8045L27.9606 5.14286H22.1609L21.3201 2.57143ZM29.0362 17.4651V33.4286H16.4118V21.8571C16.4118 21.5161 16.2788 21.1891 16.042 20.948C15.8052 20.7069 15.4841 20.5714 15.1493 20.5714H7.57466C7.23984 20.5714 6.91873 20.7069 6.68198 20.948C6.44522 21.1891 6.31222 21.5161 6.31222 21.8571V33.4286H3.78733V17.4651C5.09031 18.046 6.54791 18.1609 7.92314 17.7912C9.29836 17.4214 10.5103 16.5888 11.362 15.4286C12.5133 16.9894 14.3464 18 16.4118 18C18.4771 18 20.3102 16.9894 21.4615 15.4286C22.3132 16.5888 23.5252 17.4214 24.9004 17.7912C26.2756 18.1609 27.7332 18.046 29.0362 17.4651ZM13.8869 33.4286H8.8371V23.1429H13.8869V33.4286Z" fill="#FFC800"/>
</svg>
