<svg width="19" height="16" viewBox="0 0 19 16" fill="none" xmlns="http://www.w3.org/2000/svg">
<path d="M9.33333 14.3333H2.25C1.91848 14.3333 1.60054 14.2016 1.36612 13.9672C1.1317 13.7328 1 13.4149 1 13.0833V2.25C1 1.91848 1.1317 1.60054 1.36612 1.36612C1.60054 1.1317 1.91848 1 2.25 1H16.4167C16.7482 1 17.0661 1.1317 17.3005 1.36612C17.535 1.60054 17.6667 1.91848 17.6667 2.25V7.27458" stroke="#071529" stroke-linecap="round" stroke-linejoin="round"/>
<path d="M1 2.25C1 1.91848 1.1317 1.60054 1.36612 1.36612C1.60054 1.1317 1.91848 1 2.25 1H16.4167C16.7482 1 17.0661 1.1317 17.3005 1.36612C17.535 1.60054 17.6667 1.91848 17.6667 2.25V6H1V2.25Z" stroke="#071529"/>
<path d="M2.66927 3.4987C2.66927 3.03846 3.04237 2.66536 3.5026 2.66536C3.96284 2.66536 4.33594 3.03846 4.33594 3.4987C4.33594 3.95894 3.96284 4.33203 3.5026 4.33203C3.04237 4.33203 2.66927 3.95894 2.66927 3.4987Z" fill="#071529"/>
<path d="M5.16927 3.4987C5.16927 3.03846 5.54237 2.66536 6.0026 2.66536C6.46284 2.66536 6.83594 3.03846 6.83594 3.4987C6.83594 3.95894 6.46284 4.33203 6.0026 4.33203C5.54237 4.33203 5.16927 3.95894 5.16927 3.4987Z" fill="#071529"/>
<path d="M14.75 13.082C15.4404 13.082 16 12.5224 16 11.832C16 11.1417 15.4404 10.582 14.75 10.582C14.0596 10.582 13.5 11.1417 13.5 11.832C13.5 12.5224 14.0596 13.082 14.75 13.082Z" stroke="#071529"/>
<path d="M14.7524 14.7513V13.0846M14.7524 10.5846V8.91797M12.2266 13.293L13.6699 12.4596M15.8349 11.2096L17.2782 10.3763M12.2266 10.3763L13.6699 11.2096M15.8349 12.4596L17.2782 13.293" stroke="#071529" stroke-linecap="round" stroke-linejoin="round"/>
</svg>
