<svg width="20" height="21" viewBox="0 0 20 21" fill="none" xmlns="http://www.w3.org/2000/svg">
<path d="M5.03125 6.75143C4.87541 6.59521 4.78789 6.38355 4.78789 6.16289C4.78789 5.94223 4.87541 5.73057 5.03125 5.57435L9.40625 1.19935C9.56424 1.04286 9.77763 0.955078 10 0.955078C10.2224 0.955078 10.4358 1.04286 10.5937 1.19935L14.9687 5.57435C15.1246 5.73057 15.2121 5.94223 15.2121 6.16289C15.2121 6.38355 15.1246 6.59521 14.9687 6.75143C14.8912 6.83017 14.7988 6.8927 14.6968 6.93538C14.5949 6.97806 14.4855 7.00004 14.375 7.00004C14.2645 7.00004 14.1551 6.97806 14.0532 6.93538C13.9512 6.8927 13.8588 6.83017 13.7812 6.75143L10.8333 3.80352V13.4598C10.8333 13.6808 10.7455 13.8927 10.5893 14.049C10.433 14.2053 10.221 14.2931 10 14.2931C9.77899 14.2931 9.56702 14.2053 9.41074 14.049C9.25446 13.8927 9.16667 13.6808 9.16667 13.4598V3.80352L6.21875 6.75143C6.14121 6.83017 6.04878 6.8927 5.94685 6.93538C5.84491 6.97806 5.73551 7.00004 5.625 7.00004C5.51449 7.00004 5.40509 6.97806 5.30315 6.93538C5.20122 6.8927 5.10879 6.83017 5.03125 6.75143ZM19.1667 12.6264C18.9457 12.6264 18.7337 12.7142 18.5774 12.8705C18.4211 13.0268 18.3333 13.2388 18.3333 13.4598V19.2931H1.66667V13.4598C1.66667 13.2388 1.57887 13.0268 1.42259 12.8705C1.26631 12.7142 1.05435 12.6264 0.833333 12.6264C0.61232 12.6264 0.400358 12.7142 0.244078 12.8705C0.0877975 13.0268 0 13.2388 0 13.4598V19.2931C0 19.7351 0.175595 20.159 0.488155 20.4716C0.800716 20.7842 1.22464 20.9598 1.66667 20.9598H18.3333C18.7754 20.9598 19.1993 20.7842 19.5118 20.4716C19.8244 20.159 20 19.7351 20 19.2931V13.4598C20 13.2388 19.9122 13.0268 19.7559 12.8705C19.5996 12.7142 19.3877 12.6264 19.1667 12.6264Z" fill="#071529"/>
</svg>
