<svg width="208" height="37" viewBox="0 0 208 37" fill="none" xmlns="http://www.w3.org/2000/svg">
<path fill-rule="evenodd" clip-rule="evenodd" d="M16.7877 32.1816C17.9015 32.1816 18.8032 33.0716 18.8032 34.1709C18.8032 35.2703 17.9015 36.1602 16.7877 36.1602C15.6738 36.1602 14.7721 35.2703 14.7721 34.1709C14.7721 33.0716 15.6738 32.1816 16.7877 32.1816Z" fill="white"/>
<path fill-rule="evenodd" clip-rule="evenodd" d="M28.8281 32.1816C29.9419 32.1816 30.8436 33.0716 30.8436 34.1709C30.8436 35.2703 29.9419 36.1602 28.8281 36.1602C27.7142 36.1602 26.8125 35.2703 26.8125 34.1709C26.8125 33.0716 27.7142 32.1816 28.8281 32.1816Z" fill="white"/>
<path d="M61.5399 17.9287C64.0195 19.1524 65.0472 21.0108 64.6229 23.504L64.4505 24.5248C64.0792 26.7104 63.1444 28.3725 61.6393 29.5045C60.1343 30.6431 58.1452 31.2059 55.6656 31.2059C53.1859 31.2059 51.4289 30.6366 50.3084 29.5045C49.188 28.3725 48.8167 26.6973 49.188 24.479C49.3206 23.6937 50.0101 23.1179 50.819 23.1179H53.955C53.955 23.1179 54.0081 23.1441 54.0081 23.1768L53.776 24.564C53.471 26.3505 54.3263 27.247 56.3419 27.247C58.3574 27.247 59.5972 26.3701 59.8956 24.6098L60.0216 23.8442C60.2138 22.7056 59.6901 21.8288 58.4569 21.2071L54.1937 18.9953C51.84 17.7193 50.8853 15.802 51.3162 13.25L51.4555 12.4386C51.8267 10.253 52.7351 8.58431 54.1804 7.43262C55.6258 6.28092 57.5751 5.70508 60.0282 5.70508C62.4813 5.70508 64.2317 6.28092 65.2925 7.43262C66.3533 8.58431 66.6981 10.253 66.3268 12.4386L66.1412 13.5444C66.1412 13.5444 66.1147 13.5837 66.0881 13.5837H62.8526C62.1896 13.5837 61.6857 12.9948 61.7918 12.3469C61.9509 11.4112 61.8515 10.7176 61.4868 10.2595C61.1288 9.80798 60.4194 9.57895 59.3718 9.57895C58.3243 9.57895 57.5419 9.80144 57.0314 10.2399C56.5209 10.6783 56.1827 11.3654 56.0302 12.3077L55.9242 12.949C55.712 14.1988 56.2159 15.1084 57.4358 15.6711L61.5598 17.9287H61.5399Z" fill="white"/>
<path d="M67.2488 31.2135L72.175 1.9762C72.3672 0.837594 73.3684 0 74.5419 0H77.1475L75.6027 9.15464C75.974 8.50027 76.6238 7.88516 77.552 7.30278C78.4802 6.72039 79.6007 6.43246 80.9135 6.43246C82.75 6.43246 84.0959 6.96905 84.9512 8.04876C85.8065 9.12847 86.0783 10.5615 85.78 12.348L82.8627 29.6626C82.7102 30.5591 81.9279 31.2135 81.0063 31.2135H77.9233L80.9466 13.2837C81.2649 11.3795 80.4493 10.4307 78.5001 10.4307C77.6249 10.4307 76.8492 10.6793 76.1663 11.1766C75.4834 11.674 75.0723 12.3611 74.9198 13.2445L71.8899 31.2135H67.2554H67.2488Z" fill="white"/>
<path d="M104.049 24.5087C103.678 26.7205 102.697 28.448 101.119 29.6848C99.541 30.9216 97.5387 31.5367 95.1187 31.5367C92.6987 31.5367 90.8688 30.9216 89.7218 29.6848C88.5748 28.448 88.1902 26.727 88.5615 24.5087L90.4909 13.0572C90.8621 10.8455 91.8301 9.11793 93.3949 7.88117C94.9596 6.64441 96.9685 6.0293 99.415 6.0293C101.862 6.0293 103.625 6.65095 104.785 7.9008C105.946 9.15064 106.343 10.8651 105.972 13.0507L104.043 24.5022L104.049 24.5087ZM101.344 13.0572C101.676 11.1007 100.807 10.1191 98.7321 10.1191C96.6569 10.1191 95.417 11.1007 95.0855 13.0572L93.1562 24.5087C92.8247 26.4653 93.7131 27.4468 95.8082 27.4468C97.9033 27.4468 99.0769 26.4653 99.4084 24.5087L101.338 13.0572H101.344Z" fill="white"/>
<path d="M123.174 23.2103C122.842 25.1734 122.02 26.6981 120.701 27.7909C119.381 28.8837 117.797 29.4268 115.954 29.4268C114.11 29.4268 112.731 28.936 112.088 27.9545L111.001 34.4066C110.829 35.4274 109.934 36.1734 108.886 36.1734H106.254L111.074 7.60355C111.26 6.51075 112.214 5.71242 113.335 5.71242H115.848L115.516 7.67553C115.881 7.15858 116.491 6.67435 117.333 6.22283C118.181 5.77131 119.176 5.54883 120.323 5.54883C122.173 5.54883 123.519 6.07887 124.361 7.14549C125.203 8.20557 125.468 9.65173 125.163 11.4774L123.187 23.2103H123.174ZM112.91 23.0467C112.771 23.8647 112.944 24.5059 113.428 24.9705C113.912 25.4351 114.588 25.6642 115.45 25.6642C117.326 25.6642 118.413 24.7677 118.718 22.9682L120.555 12.0925C120.86 10.293 120.071 9.39653 118.195 9.39653C117.326 9.39653 116.57 9.62556 115.934 10.0902C115.297 10.5548 114.906 11.196 114.767 12.014L112.904 23.0532L112.91 23.0467Z" fill="white"/>
<path d="M134.081 0H136.892L131.959 29.2438C131.767 30.3824 130.772 31.2135 129.599 31.2135H126.987L131.953 1.77334C132.125 0.745982 133.027 0 134.074 0L134.081 0Z" fill="#FFC900"/>
<path d="M152.857 24.1845C152.486 26.3963 151.505 28.1238 149.927 29.3606C148.349 30.5973 146.347 31.2124 143.927 31.2124C141.507 31.2124 139.677 30.5973 138.53 29.3606C137.383 28.1238 136.998 26.4028 137.369 24.1845L139.299 12.733C139.67 10.5212 140.638 8.79371 142.203 7.55695C143.768 6.32019 145.776 5.70508 148.223 5.70508C150.669 5.70508 152.433 6.32673 153.593 7.57658C154.754 8.82643 155.151 10.5409 154.78 12.7265L152.851 24.178L152.857 24.1845ZM150.152 12.733C150.484 10.7764 149.615 9.79489 147.54 9.79489C145.465 9.79489 144.225 10.7764 143.894 12.733L141.964 24.1845C141.633 26.1411 142.521 27.1226 144.616 27.1226C146.711 27.1226 147.885 26.1411 148.216 24.1845L150.146 12.733H150.152Z" fill="#FFC900"/>
<path d="M163.359 16.1501C163.432 17.8515 163.465 19.5463 163.452 21.2411C163.439 22.9294 163.406 24.1989 163.353 25.0495L163.32 26.3256C164.215 23.3285 165.375 19.9389 166.8 16.1501L170.036 7.46006C170.427 6.40652 171.441 5.71289 172.575 5.71289H175.439L165.527 31.2203H159.507L158.155 5.71289H162.995L163.359 16.1501Z" fill="#FFC900"/>
<path d="M179.981 19.7544L179.219 24.2696C178.894 26.2 179.795 27.1619 181.924 27.1619C184.052 27.1619 185.279 26.1934 185.603 24.2696C185.776 23.2618 186.658 22.5224 187.692 22.5224H190.49L190.211 24.1845C189.84 26.3963 188.859 28.1238 187.281 29.3606C185.703 30.5973 183.687 31.2124 181.241 31.2124C178.794 31.2124 176.991 30.5973 175.844 29.3606C174.697 28.1238 174.306 26.4028 174.684 24.1845L176.613 12.733C176.984 10.5212 177.952 8.79371 179.517 7.55695C181.082 6.32019 183.091 5.70508 185.537 5.70508C187.984 5.70508 189.794 6.32673 190.954 7.57658C192.114 8.82643 192.512 10.5409 192.141 12.7265L190.961 19.7086H190.788V19.7544H179.981ZM187.612 12.6414C187.937 10.711 187.022 9.74909 184.861 9.74909C182.699 9.74909 181.506 10.7176 181.181 12.6414L180.591 16.1357H187.022L187.612 12.6414Z" fill="#FFC900"/>
<path d="M207.197 10.3519C206.74 10.2079 206.13 10.1294 205.374 10.1294C204.346 10.1294 203.438 10.4762 202.642 11.1633C201.847 11.857 201.35 12.7731 201.157 13.9182L198.611 29.0211C198.399 30.284 197.292 31.2132 195.992 31.2132H193.44L197.749 5.6797H202.324L201.754 9.07589C202.026 8.19249 202.629 7.38761 203.564 6.64817C204.505 5.91528 205.666 5.54883 207.058 5.54883C207.509 5.54883 207.827 5.56192 208 5.59463L207.197 10.3585V10.3519Z" fill="#FFC900"/>
<path fill-rule="evenodd" clip-rule="evenodd" d="M0 0H9.69324L11.311 4.18143H4.65435L3.86536 2.10707H0.795615L0 0Z" fill="white"/>
<path fill-rule="evenodd" clip-rule="evenodd" d="M5.24438 5.73194L40.2846 5.69922L37.911 12.0074H14.1354L14.9177 14.0686H37.1353L33.018 24.9901H21.276L19.5588 20.5403H28.0586L28.8344 18.4791H10.038L5.24438 5.73194Z" fill="white"/>
<path fill-rule="evenodd" clip-rule="evenodd" d="M10.9268 20.8535L14.8186 31.2122L30.6978 31.2057L32.3818 26.7559H19.7979L17.5237 20.8535H10.9268Z" fill="#FFC900"/>
</svg>
