<svg width="18" height="17" viewBox="0 0 18 17" fill="none" xmlns="http://www.w3.org/2000/svg">
<path fill-rule="evenodd" clip-rule="evenodd" d="M1.35004 10.2438C1.35004 10.605 1.04764 10.8983 0.675108 10.8983C0.30258 10.8983 0.000171018 10.605 0.000171018 10.2438V3.77075C0.000171018 1.69157 1.74448 0 3.88936 0H8.16075C10.3099 0 12.0586 1.69582 12.0586 3.7801V4.57148C12.0586 4.9319 11.7562 5.22516 11.3837 5.22516C11.0112 5.22516 10.7088 4.9319 10.7088 4.57148V3.7801C10.7088 2.41665 9.56583 1.30905 8.16075 1.30905H3.88936C2.48865 1.30905 1.35004 2.4141 1.35004 3.77075V10.2438ZM10.7086 12.4293C10.7086 12.0681 11.011 11.7748 11.3836 11.7748C11.7561 11.7748 12.0585 12.0681 12.0585 12.4293V13.2292C12.0585 15.3084 10.3142 17 8.1693 17H3.89707C1.74868 17 0 15.3042 0 13.2199C0 12.8586 0.3024 12.5662 0.674928 12.5662C1.04746 12.5662 1.34986 12.8586 1.34986 13.2199C1.34986 14.5833 2.49286 15.6909 3.89707 15.6909H8.1693C9.56997 15.6909 10.7086 14.5867 10.7086 13.2292V12.4293ZM17.949 8.25028C17.8447 8.00458 17.5983 7.84478 17.3249 7.84478H6.79419C6.42166 7.84478 6.11838 8.13888 6.11838 8.50018C6.11838 8.86147 6.42166 9.15468 6.79419 9.15468H15.691L14.2877 10.5097C14.023 10.7647 14.023 11.1787 14.2859 11.4354C14.4174 11.5637 14.591 11.6283 14.7636 11.6283C14.9363 11.6283 15.1081 11.5637 15.2405 11.4371L17.8017 8.96428C17.9945 8.77728 18.0533 8.49508 17.949 8.25028ZM15.4096 7.30168C15.2378 7.30168 15.066 7.23797 14.9346 7.11217L14.2886 6.49248C14.0238 6.23831 14.0221 5.8235 14.2842 5.56763C14.5471 5.30922 14.9731 5.30753 15.2387 5.56253L15.8838 6.18136C16.1494 6.43637 16.1512 6.85037 15.8891 7.10707C15.7567 7.23627 15.5832 7.30168 15.4096 7.30168Z" fill="#071529"/>
</svg>
