<svg width="9" height="6" viewBox="0 0 9 6" fill="none" xmlns="http://www.w3.org/2000/svg">
<path fill-rule="evenodd" clip-rule="evenodd" d="M8.60002 1.13595C8.28799 0.825776 7.78405 0.825776 7.47202 1.13595L4.60002 3.96795L1.76802 1.13595C1.45599 0.825776 0.95205 0.825776 0.64002 1.13595C0.48857 1.28617 0.403381 1.49064 0.403381 1.70395C0.403381 1.91726 0.48857 2.12174 0.64002 2.27195L4.03202 5.66395C4.18223 5.8154 4.38671 5.90059 4.60002 5.90059C4.81333 5.90059 5.01781 5.8154 5.16802 5.66395L8.60002 2.27195C8.75147 2.12174 8.83666 1.91726 8.83666 1.70395C8.83666 1.49064 8.75147 1.28617 8.60002 1.13595Z" fill="#272727"/>
</svg>
