<svg width="20" height="18" viewBox="0 0 20 18" fill="none" xmlns="http://www.w3.org/2000/svg">
<path d="M19.0263 3.89343L12.1032 0.0857279C12.0009 0.0294891 11.8862 0 11.7695 0C11.6528 0 11.538 0.0294891 11.4358 0.0857279L4.5127 3.89343C4.40415 3.95319 4.31364 4.04099 4.25059 4.14767C4.18755 4.25434 4.1543 4.37598 4.1543 4.49989C4.1543 4.6238 4.18755 4.74544 4.25059 4.85212C4.31364 4.95879 4.40415 5.04659 4.5127 5.10635L11.0772 8.71675V16.1376L8.97532 14.9815L8.30794 16.1937L11.4358 17.9141C11.538 17.9704 11.6528 18 11.7695 18C11.8862 18 12.001 17.9704 12.1032 17.9141L19.0263 14.1064C19.1349 14.0466 19.2254 13.9589 19.2885 13.8522C19.3516 13.7455 19.3849 13.6238 19.3849 13.4999V4.49989C19.3849 4.37596 19.3516 4.25431 19.2885 4.14763C19.2254 4.04095 19.1349 3.95316 19.0263 3.89343ZM11.7695 1.48281L17.256 4.49989L11.7695 7.51697L6.28293 4.49989L11.7695 1.48281ZM18.0003 13.0908L12.4618 16.1369V8.71605L18.0003 5.66989V13.0908Z" fill="#5F6368"/>
<path d="M5.53847 8.99985H0V7.61523H5.53847V8.99985ZM6.92309 14.5383H1.38462V13.1537H6.92309V14.5383ZM8.30771 11.7691H2.76924V10.3845H8.30771V11.7691Z" fill="#5F6368"/>
</svg>
