<svg width="42" height="42" viewBox="0 0 42 42" fill="none" xmlns="http://www.w3.org/2000/svg">
<circle cx="20.7837" cy="20.7837" r="20.7837" fill="white"/>
<path d="M20.7847 8.31348C17.4006 8.31348 16.975 8.32906 15.6454 8.3883C14.3157 8.45065 13.4101 8.65953 12.6167 8.96816C11.7844 9.2812 11.0306 9.77222 10.4079 10.4069C9.77359 11.03 9.28262 11.7837 8.96914 12.6157C8.6605 13.4076 8.45007 14.3148 8.38927 15.6397C8.33004 16.9725 8.31445 17.3965 8.31445 20.7853C8.31445 24.1709 8.33004 24.5949 8.38927 25.9245C8.45163 27.2526 8.6605 28.1583 8.96914 28.9517C9.28869 29.7716 9.71424 30.4668 10.4079 31.1605C11.1 31.8541 11.7952 32.2812 12.6151 32.5992C13.4101 32.9079 14.3142 33.1183 15.6423 33.1791C16.9735 33.2383 17.3974 33.2539 20.7847 33.2539C24.1719 33.2539 24.5943 33.2383 25.9255 33.1791C27.252 33.1167 28.1608 32.9079 28.9542 32.5992C29.7859 32.286 30.5392 31.795 31.1615 31.1605C31.8551 30.4668 32.2807 29.7716 32.6002 28.9517C32.9073 28.1583 33.1177 27.2526 33.1801 25.9245C33.2393 24.5949 33.2549 24.1709 33.2549 20.7837C33.2549 17.3965 33.2393 16.9725 33.1801 15.6413C33.1177 14.3148 32.9073 13.4076 32.6002 12.6157C32.2868 11.7837 31.7958 11.0299 31.1615 10.4069C30.5389 9.77199 29.785 9.28092 28.9527 8.96816C28.1577 8.65953 27.2505 8.44909 25.924 8.3883C24.5928 8.32906 24.1703 8.31348 20.7816 8.31348H20.7862H20.7847ZM19.667 10.5612H20.7862C24.1158 10.5612 24.5102 10.5721 25.8242 10.6329C27.04 10.6875 27.701 10.8917 28.1405 11.0616C28.722 11.2876 29.1382 11.5589 29.5746 11.9953C30.0111 12.4318 30.2807 12.8464 30.5068 13.4294C30.6782 13.8674 30.8809 14.5283 30.9354 15.7442C30.9962 17.0582 31.0087 17.4526 31.0087 20.7806C31.0087 24.1086 30.9962 24.5045 30.9354 25.8185C30.8809 27.0344 30.6767 27.6938 30.5068 28.1333C30.3068 28.6748 29.9877 29.1644 29.5731 29.5658C29.1366 30.0023 28.722 30.272 28.139 30.498C27.7025 30.6695 27.0416 30.8721 25.8242 30.9282C24.5102 30.9875 24.1158 31.0015 20.7862 31.0015C17.4567 31.0015 17.0608 30.9875 15.7467 30.9282C14.5309 30.8721 13.8715 30.6695 13.4319 30.498C12.8902 30.2984 12.4002 29.9798 11.9978 29.5658C11.5828 29.1637 11.2632 28.6737 11.0626 28.1318C10.8927 27.6938 10.6885 27.0328 10.6339 25.817C10.5747 24.5029 10.5622 24.1086 10.5622 20.7775C10.5622 17.4479 10.5747 17.0551 10.6339 15.7411C10.69 14.5252 10.8927 13.8643 11.0641 13.4247C11.2902 12.8433 11.5614 12.4271 11.9978 11.9906C12.4343 11.5542 12.8489 11.2845 13.4319 11.0585C13.8715 10.887 14.5309 10.6844 15.7467 10.6283C16.8971 10.5753 17.3429 10.5597 19.667 10.5581V10.5612ZM27.4422 12.6313C27.2457 12.6313 27.0511 12.67 26.8696 12.7452C26.688 12.8204 26.523 12.9306 26.3841 13.0696C26.2451 13.2085 26.1349 13.3735 26.0597 13.5551C25.9845 13.7366 25.9458 13.9312 25.9458 14.1277C25.9458 14.3242 25.9845 14.5188 26.0597 14.7004C26.1349 14.8819 26.2451 15.0469 26.3841 15.1858C26.523 15.3248 26.688 15.435 26.8696 15.5102C27.0511 15.5854 27.2457 15.6241 27.4422 15.6241C27.8391 15.6241 28.2197 15.4665 28.5003 15.1858C28.781 14.9052 28.9386 14.5246 28.9386 14.1277C28.9386 13.7308 28.781 13.3502 28.5003 13.0696C28.2197 12.7889 27.8391 12.6313 27.4422 12.6313ZM20.7862 14.3802C19.9368 14.367 19.0932 14.5228 18.3046 14.8387C17.516 15.1546 16.7981 15.6243 16.1927 16.2203C15.5874 16.8163 15.1066 17.5267 14.7785 18.3103C14.4503 19.0939 14.2813 19.9349 14.2813 20.7845C14.2813 21.634 14.4503 22.475 14.7785 23.2586C15.1066 24.0422 15.5874 24.7527 16.1927 25.3487C16.7981 25.9447 17.516 26.4143 18.3046 26.7302C19.0932 27.0461 19.9368 27.202 20.7862 27.1887C22.4674 27.1625 24.0709 26.4762 25.2505 25.278C26.4302 24.0799 27.0913 22.4659 27.0913 20.7845C27.0913 19.1031 26.4302 17.4891 25.2505 16.2909C24.0709 15.0927 22.4674 14.4065 20.7862 14.3802ZM20.7862 16.6264C21.8888 16.6264 22.9462 17.0644 23.7259 17.8441C24.5055 18.6237 24.9435 19.6811 24.9435 20.7837C24.9435 21.8863 24.5055 22.9437 23.7259 23.7233C22.9462 24.503 21.8888 24.941 20.7862 24.941C19.6837 24.941 18.6262 24.503 17.8466 23.7233C17.067 22.9437 16.629 21.8863 16.629 20.7837C16.629 19.6811 17.067 18.6237 17.8466 17.8441C18.6262 17.0644 19.6837 16.6264 20.7862 16.6264Z" fill="#DE146A"/>
</svg>
