<svg width="42" height="42" viewBox="0 0 42 42" fill="none" xmlns="http://www.w3.org/2000/svg">
<circle cx="20.7839" cy="20.7837" r="20.7837" fill="white"/>
<path fill-rule="evenodd" clip-rule="evenodd" d="M18.112 17.6337H21.9715V19.5562C22.5274 18.4505 23.9532 17.457 26.095 17.457C30.2008 17.457 31.1755 19.658 31.1755 23.6963V31.1753H27.0188V24.616C27.0188 22.3162 26.4628 21.0193 25.0475 21.0193C23.0845 21.0193 22.2687 22.417 22.2687 24.6149V31.1753H18.112V17.6337V17.6337ZM10.9842 30.9986H15.1409V17.457H10.9842V30.9986V30.9986ZM15.7364 13.0415C15.7365 13.3899 15.6674 13.7349 15.5331 14.0564C15.3988 14.3779 15.2019 14.6694 14.9539 14.9141C14.4513 15.4136 13.7711 15.6932 13.0626 15.6914C12.3553 15.691 11.6766 15.4121 11.1733 14.9152C10.9262 14.6696 10.73 14.3777 10.5959 14.0562C10.4618 13.7347 10.3924 13.3899 10.3918 13.0415C10.3918 12.338 10.6724 11.6646 11.1744 11.1679C11.6772 10.6703 12.3562 10.3913 13.0636 10.3916C13.7723 10.3916 14.4519 10.6711 14.9539 11.1679C15.4548 11.6646 15.7364 12.338 15.7364 13.0415Z" fill="#FFC800"/>
</svg>
