<svg width="16" height="11" viewBox="0 0 16 11" fill="none" xmlns="http://www.w3.org/2000/svg">
<path d="M16 11H2V10H15V3H16V11Z" fill="black"/>
<path d="M13 1V8H1V1H13ZM14 0H0V9H14V0Z" fill="black"/>
<path d="M3 3H2V6H3V7H7C6.33696 7 5.70107 6.73661 5.23223 6.26777C4.76339 5.79893 4.5 5.16304 4.5 4.5C4.5 3.83696 4.76339 3.20107 5.23223 2.73223C5.70107 2.26339 6.33696 2 7 2H3V3ZM11 3V2H7C7.66304 2 8.29893 2.26339 8.76777 2.73223C9.23661 3.20107 9.5 3.83696 9.5 4.5C9.5 5.16304 9.23661 5.79893 8.76777 6.26777C8.29893 6.73661 7.66304 7 7 7H11V6H12V3H11Z" fill="black"/>
</svg>
