<svg width="186" height="34" viewBox="0 0 186 34" fill="none" xmlns="http://www.w3.org/2000/svg">
<path d="M41.3203 5.29053H48.8001C48.9811 5.29053 49.1018 5.47149 49.0414 5.65246L41.1393 25.9205C41.079 26.0412 41.0187 26.1015 40.898 26.1015H33.4181C33.2372 26.1015 33.1165 25.9205 33.1768 25.7396L35.7103 19.2248C35.7707 19.0439 35.65 18.8629 35.4691 18.8629H32.8149C32.6943 18.8629 32.6339 18.9232 32.5736 19.0439L29.9195 25.9205C29.8591 26.0412 29.7988 26.1015 29.6782 26.1015H22.0777C21.8967 26.1015 21.776 25.9205 21.8364 25.7396L29.7385 5.47149C29.7988 5.35085 29.8591 5.29053 29.9798 5.29053H37.5803C37.7613 5.29053 37.8819 5.47149 37.8216 5.65246L35.1675 12.4688C35.1071 12.6498 35.2278 12.8307 35.4087 12.8307H38.0629C38.1835 12.8307 38.2439 12.7704 38.3042 12.6498L41.1393 5.47149C41.1393 5.35085 41.2599 5.29053 41.3203 5.29053Z" fill="white"/>
<path d="M50.7305 8.18561C51.6956 6.97918 52.9021 6.07435 54.4101 5.59178C55.9182 5.10921 58.0294 4.86792 60.7439 4.86792C62.5535 4.86792 64.0013 4.98856 65.0871 5.22985C66.1728 5.47114 66.957 5.89339 67.4999 6.43628C67.9825 6.97918 68.2841 7.76336 68.2841 8.72851C68.2841 9.93494 67.8618 11.6239 67.0173 13.8558L65.6299 17.5958C64.6648 20.1293 63.6997 22.0596 62.7345 23.266C61.7694 24.4725 60.5629 25.3773 59.0549 25.7995C57.5468 26.2821 55.4959 26.5234 52.7211 26.5234C50.9115 26.5234 49.4637 26.4028 48.378 26.1615C47.2922 25.9202 46.508 25.5582 45.9651 25.0154C45.4222 24.4725 45.1809 23.7486 45.1809 22.7835C45.1809 21.577 45.6032 19.8277 46.508 17.5958L47.8954 13.8558C48.8002 11.262 49.7654 9.39204 50.7305 8.18561ZM53.8069 19.2245C53.8069 19.4054 53.9275 19.5864 54.1085 19.6467C54.2895 19.7674 54.6514 19.7674 55.134 19.7674C55.6166 19.7674 56.0388 19.707 56.2801 19.6467C56.5214 19.5261 56.7627 19.4054 56.8833 19.1642C57.004 18.9229 57.1849 18.6213 57.3659 18.1387L59.2962 13.0717C59.4771 12.6494 59.5375 12.2875 59.5375 12.1065C59.5375 11.9256 59.4168 11.7446 59.2358 11.6843C59.0549 11.5636 58.693 11.5636 58.2104 11.5636C57.7278 11.5636 57.3056 11.6239 57.0643 11.6843C56.823 11.8049 56.5817 11.9256 56.4611 12.1065C56.3404 12.2875 56.1594 12.6494 55.9785 13.0717L54.0482 18.1387C53.9275 18.6213 53.8069 18.9832 53.8069 19.2245Z" fill="white"/>
<path d="M150.925 5.29053H166.186C166.367 5.29053 166.488 5.47149 166.427 5.65246L164.316 11.0211C164.256 11.1417 164.196 11.202 164.075 11.202H156.776C156.655 11.202 156.595 11.2624 156.535 11.383L155.871 13.0117C155.811 13.1927 155.931 13.3736 156.112 13.3736H162.687C162.868 13.3736 162.989 13.5546 162.929 13.7356L161.24 18.0787C161.179 18.1994 161.119 18.2597 160.998 18.2597H154.001C153.881 18.2597 153.82 18.32 153.76 18.4406L153.157 20.009C153.096 20.19 153.217 20.3709 153.398 20.3709H160.275C160.456 20.3709 160.576 20.5519 160.516 20.7329L158.405 26.0412C158.344 26.1618 158.284 26.2221 158.163 26.2221H142.962C142.781 26.2221 142.661 26.0412 142.721 25.8602L150.623 5.59214C150.744 5.35085 150.864 5.29053 150.925 5.29053Z" fill="white"/>
<path d="M185.67 8.54767C185.67 9.21121 185.489 10.0557 185.127 11.0209L184.825 11.8654C184.283 13.3131 183.498 14.3989 182.352 15.1831C181.267 15.9672 179.879 16.3895 178.311 16.5101C178.19 16.5101 178.13 16.5704 178.069 16.6911L178.009 16.8721C179.276 16.9927 180.181 17.2943 180.784 17.8372C181.387 18.3801 181.689 19.104 181.689 19.9485C181.689 20.5517 181.568 21.2152 181.327 21.8788L179.819 25.9203C179.758 26.041 179.698 26.1013 179.578 26.1013H171.977C171.796 26.1013 171.675 25.9203 171.736 25.7393L173.244 21.8184C173.364 21.5771 173.364 21.3359 173.364 21.2152C173.364 20.8533 173.123 20.6723 172.701 20.6723H170.952C170.831 20.6723 170.771 20.7326 170.71 20.8533L168.78 25.9806C168.72 26.1013 168.659 26.1616 168.539 26.1616H161.179C160.998 26.1616 160.878 25.9806 160.938 25.7997L168.599 5.41094C168.659 5.2903 168.72 5.22998 168.84 5.22998H180.543C183.981 5.2903 185.67 6.37609 185.67 8.54767ZM173.002 14.6402C172.942 14.8211 173.063 15.0021 173.244 15.0021H174.752C175.114 15.0021 175.415 14.9418 175.657 14.7608C175.898 14.5798 176.079 14.2782 176.26 13.7957L176.923 12.1066C176.984 11.8654 177.044 11.6844 177.044 11.5638C177.044 11.3828 176.984 11.2621 176.863 11.2018C176.742 11.1415 176.501 11.0812 176.2 11.0812H174.571C174.45 11.0812 174.39 11.1415 174.33 11.2621L173.002 14.6402Z" fill="white"/>
<path d="M141.092 5.29053H148.753C148.934 5.29053 149.055 5.47149 148.994 5.65246L138.076 25.9205C138.016 25.9809 137.956 26.0412 137.835 26.0412H124.625C124.444 26.0412 124.323 25.8602 124.383 25.7396L129.33 5.47149C129.33 5.35085 129.45 5.29053 129.571 5.29053H137.051C137.232 5.29053 137.352 5.47149 137.292 5.59214L133.07 19.2852C133.009 19.4661 133.13 19.5868 133.311 19.5868H134.035C134.155 19.5868 134.216 19.5264 134.276 19.4661L140.851 5.41117C140.851 5.29053 140.972 5.29053 141.092 5.29053Z" fill="white"/>
<path d="M37.4597 28.1524C47.7747 31.4701 59.2962 32.3146 69.5508 28.454C72.8685 27.1872 75.8846 25.4379 78.7197 23.3266C81.4945 21.336 84.2693 19.2851 87.0441 17.1738C95.1272 11.2623 103.391 5.1095 113.103 1.97278C120.04 -0.259125 128.063 -1.16395 134.517 2.3347C135.543 2.8776 136.99 3.90307 136.99 3.90307C136.99 3.90307 129.511 2.0331 125.771 2.09342C111.535 2.27438 99.8323 11.8052 88.9744 19.828C85.717 22.2408 82.4597 24.6537 79.0817 26.8856C74.7385 29.7811 69.7318 31.7717 64.5441 32.6162C56.461 33.9432 48.1366 32.7368 40.5361 29.8414C39.39 29.4191 37.4597 28.1524 37.4597 28.1524Z" fill="#E2136E"/>
<path d="M124.986 6.37622C124.504 5.83333 123.659 5.41108 122.574 5.16979C121.488 4.9285 120.04 4.80786 118.17 4.80786C116.903 4.80786 115.757 4.86818 114.792 4.98883C114.792 4.98883 114.792 4.98883 114.732 4.98883C111.474 5.89365 108.76 7.88426 107.614 8.84941L107.554 8.90973C106.769 10.1162 105.985 11.7449 105.201 13.7958L103.814 17.5357C102.909 19.7676 102.487 21.517 102.487 22.7234C102.487 23.6885 102.728 24.4124 103.271 24.9553C103.814 25.4982 104.598 25.8601 105.684 26.1014C106.769 26.3427 108.217 26.4633 110.087 26.4633C112.862 26.4633 114.973 26.222 116.481 25.7395C117.989 25.2569 119.196 24.4124 120.161 23.206C121.126 21.9995 122.091 20.0692 123.117 17.5357L124.504 13.7958C125.348 11.5639 125.771 9.81456 125.771 8.66845C125.771 7.7033 125.469 6.91912 124.986 6.37622ZM116.783 13.0719L114.852 18.1389C114.671 18.6215 114.491 18.9231 114.37 19.1644C114.249 19.4057 114.008 19.5263 113.767 19.647C113.525 19.7676 113.103 19.7676 112.621 19.7676C112.138 19.7676 111.776 19.7073 111.595 19.647C111.414 19.5263 111.293 19.4057 111.293 19.2247C111.293 18.9834 111.354 18.6215 111.535 18.1993L113.465 13.1322C113.646 12.6497 113.827 12.3481 113.948 12.1671C114.068 11.9861 114.31 11.8052 114.551 11.7449C114.792 11.6242 115.214 11.6242 115.697 11.6242C116.18 11.6242 116.541 11.6845 116.722 11.7449C116.903 11.8655 117.024 11.9861 117.024 12.1671C117.024 12.3481 116.964 12.6497 116.783 13.0719Z" fill="white"/>
<path d="M102.125 5.29053H94.1018C94.0414 5.29053 93.9811 5.35085 93.9208 5.41117L91.0857 12.7101C91.0254 12.8911 91.2063 13.0117 91.3873 12.9514L102.728 5.35085L102.125 5.29053Z" fill="white"/>
<path d="M89.5776 12.2878C90.1205 10.8401 90.4221 9.63369 90.4221 8.66854C90.4221 7.52243 89.9999 6.67792 89.2157 6.13503C88.4315 5.59214 87.1648 5.29053 85.5361 5.29053H73.2305C73.1098 5.29053 73.0495 5.35085 72.9892 5.47149L65.087 25.7396C65.0267 25.9205 65.1474 26.1015 65.3283 26.1015H72.9289C73.0495 26.1015 73.1098 26.0412 73.1701 25.9205L74.4369 22.6028C74.4972 22.4822 74.5575 22.4219 74.6782 22.4219H77.8149C77.8752 22.4219 77.9355 22.4219 77.9355 22.3616L88.4918 14.8817C88.5522 14.8817 88.5522 14.8213 88.6125 14.761L89.5776 12.2878ZM81.2532 12.8307L80.4087 15.0626C80.2278 15.4849 80.0468 15.7262 79.8658 15.8468C79.6849 15.9675 79.3833 16.0278 78.961 16.0278H77.3323C77.1514 16.0278 77.0307 15.8468 77.0911 15.6659L78.5991 11.8656C78.6594 11.7449 78.7197 11.6846 78.8404 11.6846H80.5897C80.831 11.6846 81.0723 11.7449 81.1929 11.8053C81.3136 11.8656 81.3739 11.9862 81.3739 12.1672C81.3739 12.3482 81.3136 12.5291 81.2532 12.8307Z" fill="white"/>
<path d="M96.4543 19.7676L98.5052 14.4593C98.5656 14.2783 98.3846 14.0974 98.2036 14.218L87.2854 22.3011L87.2251 22.3614L85.898 25.7395C85.8377 25.8601 85.9583 25.9807 86.079 25.9807C87.9489 26.0411 98.9878 26.2823 100.556 26.1014C100.616 26.1014 100.677 26.0411 100.737 25.9807C100.918 25.2569 101.823 21.2153 102.185 20.3105C102.245 20.1295 102.125 19.9486 101.944 19.9486H96.5749C96.5146 20.0089 96.394 19.8883 96.4543 19.7676Z" fill="white"/>
<path d="M64.0616 33.9435C64.0616 33.9435 76.4275 32.6164 85.3551 23.5078C84.5106 26.1016 84.5106 26.1016 84.5106 26.1016C84.5106 26.1016 77.5133 33.099 64.0616 33.9435Z" fill="#E2136E"/>
<path d="M17.071 11.1418C19.122 11.1418 23.6461 10.9609 25.2144 10.9609L27.386 5.10966C26.059 4.86837 22.1984 5.2303 21.2935 5.16998C20.3284 5.04933 19.2426 4.98901 17.9759 4.98901C16.4075 4.98901 15.0201 5.16998 13.8137 5.47159L17.433 5.65255L12.3659 5.89384C12.004 6.0748 11.6421 6.25577 11.2801 6.43673C10.9182 6.67802 10.5563 6.91931 10.2547 7.16059L13.874 7.34156L9.83243 7.58284C9.41018 7.94477 9.10857 8.3067 8.80696 8.72896L16.1059 9.09089L8.32439 9.51314C8.26406 9.57346 8.26407 9.63378 8.20374 9.75442C8.0831 10.056 7.96246 10.3576 7.90214 10.5989L12.6072 10.8402L7.72117 11.0815C7.66085 11.4434 7.54021 11.8054 7.54021 12.1673L14.7788 12.5292L7.47988 12.8911V12.9515C7.47988 13.3134 7.54021 13.6753 7.60053 14.0373L11.3405 14.2182L7.66085 14.3992C7.78149 14.8818 7.96246 15.304 8.20374 15.6659L13.512 15.9676L8.62599 16.2088C9.16889 16.8121 9.95307 17.2946 10.8579 17.5962L12.8485 18.1391C13.0898 18.2598 13.2708 18.3804 13.3914 18.5011C13.512 18.6217 13.5724 18.7423 13.5724 18.9233C13.5724 19.1646 13.4517 19.4059 13.2104 19.6472C12.9692 19.8885 12.5469 20.0091 11.9437 20.0091C9.16889 20.0091 4.34316 20.0091 2.65415 19.9488L2.29222 20.9139L6.15281 21.0949L2.05094 21.4568L1.50804 22.7839L8.02278 22.9649L1.32708 23.2062L0.904825 24.3523L10.2547 24.7142L0.603216 25.0761L0 26.3429C1.74933 26.3429 9.41018 26.2826 10.9785 26.2826C13.8137 26.2826 15.9852 25.8 17.5536 24.8348C19.122 23.8697 20.1474 22.7236 20.6903 21.4568C21.2332 20.1901 21.4745 19.044 21.4745 17.9582C21.4745 16.7517 21.1729 15.7866 20.5697 15.1231C19.9665 14.4595 19.0616 13.8563 17.7346 13.434L16.1662 12.9515C15.8646 12.8308 15.6836 12.7102 15.563 12.5895C15.4423 12.4689 15.382 12.2879 15.382 12.107C15.5027 11.4434 15.9852 11.1418 17.071 11.1418Z" fill="white"/>
</svg>
