<svg width="42" height="42" viewBox="0 0 42 42" fill="none" xmlns="http://www.w3.org/2000/svg">
<circle cx="20.7837" cy="20.7837" r="20.7837" fill="white"/>
<path d="M35.3325 13.1035C34.2625 13.5617 33.113 13.8714 31.9046 14.0113C33.1515 13.2902 34.0843 12.1553 34.529 10.8183C33.3576 11.4908 32.0755 11.9642 30.7384 12.2179C29.8393 11.29 28.6484 10.675 27.3506 10.4684C26.0528 10.2617 24.7208 10.475 23.5612 11.075C22.4016 11.675 21.4795 12.6283 20.9379 13.7868C20.3963 14.9453 20.2656 16.2441 20.5661 17.4818C18.1924 17.3666 15.8703 16.7703 13.7505 15.7316C11.6306 14.6929 9.76049 13.2349 8.26136 11.4525C7.74877 12.3071 7.45403 13.2979 7.45403 14.3532C7.45346 15.3031 7.69551 16.2386 8.15869 17.0764C8.62187 17.9143 9.29188 18.6287 10.1093 19.1563C9.16131 19.1272 8.23429 18.8796 7.40534 18.4342V18.5086C7.40524 19.8409 7.88209 21.1323 8.75497 22.1636C9.62784 23.1948 10.843 23.9024 12.1942 24.1663C11.3148 24.3963 10.3929 24.4302 9.49799 24.2654C9.87922 25.4118 10.6218 26.4143 11.6219 27.1326C12.6219 27.8508 13.8293 28.2488 15.075 28.2709C12.9603 29.8754 10.3487 30.7457 7.66035 30.7419C7.18413 30.742 6.70831 30.7151 6.23535 30.6613C8.96422 32.3572 12.1408 33.2572 15.3851 33.2537C26.3673 33.2537 32.371 24.4623 32.371 16.8377C32.371 16.59 32.3646 16.3398 32.3531 16.0921C33.5209 15.2759 34.5289 14.2651 35.33 13.1072L35.3325 13.1035Z" fill="#FFC800"/>
</svg>
