<svg width="42" height="42" viewBox="0 0 42 42" fill="none" xmlns="http://www.w3.org/2000/svg">
<circle cx="20.7837" cy="20.7837" r="20.7837" fill="white"/>
<path d="M32.7319 15.0803C32.5907 14.5766 32.3156 14.1205 31.936 13.7607C31.5456 13.3897 31.0671 13.1244 30.5457 12.9897C28.5944 12.4754 20.7766 12.4754 20.7766 12.4754C17.5175 12.4383 14.2591 12.6014 11.02 12.9637C10.4986 13.1084 10.021 13.3796 9.62973 13.7534C9.24529 14.1233 8.96682 14.5794 8.82135 15.0792C8.47192 16.9617 8.30214 18.8731 8.3143 20.7877C8.30183 22.7006 8.4712 24.6114 8.82135 26.4962C8.9637 26.9939 9.24113 27.448 9.62662 27.8148C10.0121 28.1816 10.4921 28.4465 11.02 28.5868C12.9973 29.1001 20.7766 29.1001 20.7766 29.1001C24.0399 29.1372 27.3024 28.9741 30.5457 28.6117C31.0671 28.477 31.5456 28.2117 31.936 27.8408C32.3155 27.481 32.5902 27.0249 32.7308 26.5212C33.0894 24.6394 33.2637 22.7272 33.2514 20.8116C33.2784 18.8879 33.1042 16.9667 32.7319 15.0792V15.0803ZM18.2912 24.3454V17.2311L24.7956 20.7888L18.2912 24.3454Z" fill="#FFC800"/>
</svg>
