<svg width="30" height="30" viewBox="0 0 30 30" fill="none" xmlns="http://www.w3.org/2000/svg">
<circle cx="15" cy="15" r="14" fill="white" stroke="#1EBC13" stroke-width="2"/>
<circle cx="15" cy="15" r="10" fill="#1EBC13"/>
<path d="M19.7355 11.2199C19.8037 11.1503 19.8852 11.095 19.9751 11.0572C20.065 11.0195 20.1615 11 20.259 11C20.3565 11 20.453 11.0195 20.5429 11.0572C20.6328 11.095 20.7142 11.1503 20.7825 11.2199C21.0685 11.5089 21.0725 11.9759 20.7925 12.2699L14.8795 19.2599C14.8124 19.3337 14.7309 19.3929 14.6401 19.4341C14.5493 19.4752 14.451 19.4974 14.3513 19.4993C14.2516 19.5011 14.1526 19.4827 14.0603 19.4449C13.968 19.4072 13.8843 19.3511 13.8145 19.2799L10.2165 15.6339C10.0777 15.4924 10 15.3021 10 15.1039C10 14.9057 10.0777 14.7154 10.2165 14.5739C10.2847 14.5043 10.3662 14.449 10.4561 14.4112C10.546 14.3735 10.6425 14.354 10.74 14.354C10.8375 14.354 10.934 14.3735 11.0239 14.4112C11.1138 14.449 11.1952 14.5043 11.2635 14.5739L14.3155 17.6669L19.7155 11.2419C19.7217 11.2342 19.7284 11.2269 19.7355 11.2199Z" fill="white"/>
</svg>
