<svg width="35" height="35" viewBox="0 0 35 35" fill="none" xmlns="http://www.w3.org/2000/svg">
<rect width="35" height="35" rx="2" fill="black"/>
<path fill-rule="evenodd" clip-rule="evenodd" d="M29.4026 12.6534C29.2158 12.4318 28.983 12.2536 28.7203 12.1312C28.4576 12.0087 28.1714 11.945 27.8816 11.9444H17.5442C17.3509 11.9464 17.1664 12.0251 17.0311 12.1631C16.8958 12.3011 16.8208 12.4871 16.8226 12.6804C16.8226 13.0873 17.1459 13.4164 17.5442 13.4164H27.8816C28.1077 13.4164 28.2472 13.5424 28.3116 13.6174C28.3653 13.6808 28.4048 13.7548 28.4275 13.8346C28.4502 13.9144 28.4557 13.9981 28.4434 14.0802L27.5314 20.5194C27.4583 21.0245 27.0273 21.4045 26.527 21.4045H16.0308C15.7739 21.4038 15.5268 21.3058 15.3393 21.1301C15.1518 20.9544 15.038 20.7142 15.0207 20.4578L14.0942 9.19575C14.082 9.03477 14.0169 8.88236 13.909 8.76228C13.8011 8.64219 13.6565 8.5612 13.4977 8.53192L11.4966 8.17691C11.4023 8.16113 11.3058 8.1642 11.2127 8.18595C11.1196 8.20769 11.0317 8.24767 10.9541 8.30359C10.8766 8.3595 10.8109 8.43024 10.7608 8.5117C10.7108 8.59317 10.6773 8.68375 10.6625 8.77821C10.629 8.96864 10.6718 9.16461 10.7816 9.32375C10.8914 9.4829 11.0594 9.59243 11.2494 9.62868L12.7021 9.88556L13.5824 20.5819C13.6901 21.8913 14.7426 22.8793 16.0308 22.8793H26.526C27.7392 22.8793 28.785 21.9558 28.9572 20.732L29.8712 14.2928C29.9128 14.002 29.8925 13.7056 29.8114 13.4232C29.7303 13.1408 29.5903 12.8788 29.4007 12.6544L29.4026 12.6534ZM14.4107 25.9214C14.4107 25.1017 15.0649 24.4341 15.8683 24.4341C16.6716 24.4341 17.3248 25.1017 17.3248 25.9214C17.3248 26.7411 16.6706 27.4078 15.8683 27.4078C15.0649 27.4078 14.4107 26.7411 14.4107 25.9214ZM25.2369 25.9214C25.2369 25.1017 25.8901 24.4341 26.6934 24.4341C27.4968 24.4341 28.151 25.1017 28.151 25.9214C28.151 26.7411 27.4968 27.4078 26.6934 27.4078C25.8901 27.4078 25.2369 26.7411 25.2369 25.9214ZM25.7064 16.3103C25.7082 16.5035 25.6332 16.6896 25.4979 16.8276C25.3626 16.9656 25.1781 17.0443 24.9848 17.0463H22.317C22.2212 17.0454 22.1265 17.0256 22.0384 16.9881C21.9502 16.9506 21.8703 16.896 21.8033 16.8275C21.7363 16.7591 21.6834 16.6781 21.6477 16.5891C21.6121 16.5002 21.5943 16.4051 21.5954 16.3093C21.5954 15.9033 21.9177 15.5733 22.317 15.5733H24.9848C25.3831 15.5733 25.7064 15.9033 25.7064 16.3093V16.3103Z" fill="white"/>
<circle cx="10.7266" cy="18.4366" r="5.49092" fill="black" stroke="white" stroke-width="1.13739"/>
<path d="M10.3982 21.2494V16.0127H11.4401V21.2494H10.3982ZM8.30273 19.1501V18.1082H13.5395V19.1501H8.30273Z" fill="white"/>
</svg>
