<svg width="17" height="18" viewBox="0 0 17 18" fill="none" xmlns="http://www.w3.org/2000/svg">
<path d="M3.33594 14.167H13.3359M8.33594 4.16699V10.8337M8.33594 10.8337L11.2526 7.91699M8.33594 10.8337L5.41927 7.91699" stroke="#071529" stroke-width="1.5" stroke-linecap="round" stroke-linejoin="round"/>
<path d="M0.835938 16.167V2.16699C0.835937 2.03438 0.888616 1.90721 0.982384 1.81344C1.07615 1.71967 1.20333 1.66699 1.33594 1.66699H15.3359C15.4685 1.66699 15.5957 1.71967 15.6895 1.81344C15.7833 1.90721 15.8359 2.03438 15.8359 2.16699V16.167C15.8359 16.2996 15.7833 16.4268 15.6895 16.5205C15.5957 16.6143 15.4685 16.667 15.3359 16.667H1.33594C1.20333 16.667 1.07615 16.6143 0.982384 16.5205C0.888616 16.4268 0.835938 16.2996 0.835938 16.167V16.167Z" stroke="#071529" stroke-width="1.5"/>
</svg>
