<svg width="21" height="18" viewBox="0 0 21 18" fill="none" xmlns="http://www.w3.org/2000/svg">
<path d="M1 3.83366V15.8337C1 16.1873 1.14048 16.5264 1.39052 16.7765C1.64057 17.0265 1.97971 17.167 2.33333 17.167H18.3333C18.687 17.167 19.0261 17.0265 19.2761 16.7765C19.5262 16.5264 19.6667 16.1873 19.6667 15.8337V5.16699C19.6667 4.81337 19.5262 4.47423 19.2761 4.22418C19.0261 3.97413 18.687 3.83366 18.3333 3.83366H4.33333M1 3.83366V2.50033C1 2.1467 1.14048 1.80756 1.39052 1.55752C1.64057 1.30747 1.97971 1.16699 2.33333 1.16699H13C13.3536 1.16699 13.6928 1.30747 13.9428 1.55752C14.1929 1.80756 14.3333 2.1467 14.3333 2.50033V3.83366H4.33333M1 3.83366H4.33333M12.3333 11.8337H16.3333" stroke="#071529"/>
</svg>
